<svg width="48" height="48" viewBox="0 0 48 48" fill="none" xmlns="http://www.w3.org/2000/svg">
<path fill-rule="evenodd" clip-rule="evenodd" d="M16 2C14.8954 2 14 2.89543 14 4C14 5.10457 14.8954 6 16 6H32C33.1046 6 34 5.10457 34 4C34 2.89543 33.1046 2 32 2H16ZM2 11C2 9.89543 2.89543 9 4 9H44C45.1046 9 46 9.89543 46 11C46 12.1046 45.1046 13 44 13H41V39C41 42.3137 38.3137 45 35 45H13C9.68629 45 7 42.3137 7 39V13H4C2.89543 13 2 12.1046 2 11ZM11 13H37V39C37 40.1046 36.1046 41 35 41H13C11.8954 41 11 40.1046 11 39V13ZM22 20C22 18.8954 21.1046 18 20 18C18.8954 18 18 18.8954 18 20V34C18 35.1046 18.8954 36 20 36C21.1046 36 22 35.1046 22 34V20ZM28 18C29.1046 18 30 18.8954 30 20V34C30 35.1046 29.1046 36 28 36C26.8954 36 26 35.1046 26 34V20C26 18.8954 26.8954 18 28 18Z" fill="black"/>
</svg>
