<svg width="48" height="48" viewBox="0 0 48 48" fill="none" xmlns="http://www.w3.org/2000/svg">
<path fill-rule="evenodd" clip-rule="evenodd" d="M37.5504 31.3552C40.6438 33.1028 43 34.3148 43 37.4952C43 40.6755 41.1597 45 24.1452 45C7.13082 45 5 40.5852 5 37.4952C5 34.4051 7.45916 33.1028 10.5526 31.3552C14.0211 29.4135 17.2443 28.4426 17.2443 26.3066C17.2443 23.2968 13.5699 21.0391 13.5699 15.0391C13.5699 9.67394 17.0528 3 24.0515 3C31.0502 3 34.2293 10.0125 34.2293 15.0391C34.2293 21.0412 30.6401 23.2968 30.6401 26.3066C30.6401 28.4426 34.1756 29.4135 37.5504 31.3552Z" fill="black"/>
</svg>
