<svg width="48" height="48" viewBox="0 0 48 48" fill="none" xmlns="http://www.w3.org/2000/svg">
<path d="M4 10C4 6.68629 6.68629 4 10 4H22C23.1046 4 24 4.89543 24 6V8C24 9.10457 23.1046 10 22 10H14C11.7909 10 10 11.7909 10 14V34C10 36.2091 11.7909 38 14 38H22C23.1046 38 24 38.8954 24 40V42C24 43.1046 23.1046 44 22 44H10C6.68629 44 4 41.3137 4 38V10Z" fill="#666666"/>
<path d="M29.7633 12.2067C29.0801 11.7412 28 12.113 28 12.8138V19.5H18C16.8954 19.5 16 20.1716 16 21V27C16 27.8284 16.8954 28.5 18 28.5H28V35.1862C28 35.887 29.0801 36.2588 29.7633 35.7933L45.2888 25.2141C46.2371 24.5679 46.2371 23.4321 45.2888 22.7859L29.7633 12.2067Z" fill="#666666"/>
</svg>
