<svg width="50" height="50" viewBox="0 0 50 50" fill="none" xmlns="http://www.w3.org/2000/svg">
<path d="M18.3114 16.8903C13.7383 18.9878 12.3888 21.8719 11.7099 26.6909C11.6428 27.1685 11.0046 27.2905 10.7689 26.8677C6.73037 19.6667 7.95798 14.0713 15.9171 10.6019L38.9572 0.0594799C39.4693 -0.176286 40.01 0.329798 39.8088 0.858239L37.2621 7.52879C37.0487 8.08569 36.6259 8.53689 36.0832 8.78486L18.3114 16.8903Z" fill="white"/>
<path d="M32.0612 33.1097C36.6342 31.0122 37.9838 28.1281 38.6626 23.3091C38.7297 22.8315 39.3679 22.7095 39.6036 23.1323C43.6401 30.3333 42.4145 35.9287 34.4554 39.3981L11.4133 49.9405C10.9012 50.1763 10.3605 49.6702 10.5617 49.1418L13.1084 42.4712C13.3218 41.9143 13.7446 41.4631 14.2873 41.2151L32.0612 33.1097Z" fill="white"/>
<path d="M33.1363 18.604L30.4859 25.5469C30.2746 26.1038 29.8518 26.555 29.3112 26.8009L17.905 32.0203C17.4944 32.2093 17.0635 31.8028 17.2241 31.3821L19.8724 24.4392C20.0858 23.8843 20.5086 23.4331 21.0492 23.1852L32.4554 17.9658C32.866 17.7768 33.2968 18.1833 33.1363 18.604Z" fill="white"/>
</svg>
