<svg width="48" height="48" viewBox="0 0 48 48" fill="none" xmlns="http://www.w3.org/2000/svg">
<path fill-rule="evenodd" clip-rule="evenodd" d="M24 2C19.5817 2 16 5.58172 16 10V24C16 28.4183 19.5817 32 24 32C28.4183 32 32 28.4183 32 24V10C32 5.58172 28.4183 2 24 2ZM10 18C11.1046 18 12 18.8954 12 20V24C12 30.6274 17.3726 36 24 36C30.6274 36 36 30.6274 36 24V20C36 18.8954 36.8954 18 38 18C39.1046 18 40 18.8954 40 20V24C40 32.1605 33.8907 38.8941 25.9963 39.8767C25.9987 39.9175 26 39.9586 26 40V44C26 45.1046 25.1046 46 24 46C22.8954 46 22 45.1046 22 44V40C22 39.9586 22.0013 39.9175 22.0037 39.8767C14.1093 38.8941 8 32.1605 8 24V20C8 18.8954 8.89543 18 10 18Z" fill="black"/>
</svg>
