<svg width="28" height="28" viewBox="0 0 28 28" fill="none" xmlns="http://www.w3.org/2000/svg">
<path fill-rule="evenodd" clip-rule="evenodd" d="M20.839 19.5153L25.8406 24.6964C26.3865 25.252 26.3865 26.1528 25.8406 26.7083C25.2948 27.2639 24.4099 27.2639 23.864 26.7083L18.71 21.3693C16.9864 22.5189 14.9252 23.1875 12.7105 23.1875C6.65719 23.1875 1.75 18.1927 1.75 12.0312C1.75 5.86982 6.65719 0.875 12.7105 0.875C18.7639 0.875 23.6711 5.86982 23.6711 12.0312C23.6711 14.9111 22.599 17.536 20.839 19.5153V19.5153ZM18.2198 18.4609C19.98 16.897 21.0921 14.5963 21.0921 12.0313C21.0921 7.31967 17.3395 3.5001 12.7105 3.5001C8.08151 3.5001 4.32895 7.31967 4.32895 12.0313C4.32895 16.743 8.08151 20.5626 12.7105 20.5626C14.7129 20.5626 16.5513 19.8479 17.9929 18.6554C17.9994 18.6485 18.0059 18.6417 18.0126 18.635C18.0772 18.5691 18.1467 18.5111 18.2198 18.4609V18.4609Z" fill="#666666"/>
</svg>
